/* XPM */
static char *result[] = {
/* columns rows colors chars-per-pixel */
"61 62 40 1 ",
"  c black",
". c #26211B",
"X c #1E2F37",
"o c #24262C",
"O c #312921",
"+ c #3E3227",
"@ c #2C2F35",
"# c #363A3F",
"$ c #523021",
"% c #47411F",
"& c #544031",
"* c #6B5538",
"= c #202B43",
"- c #323E56",
"; c #444950",
": c #424F68",
"> c #54617B",
", c gray50",
"< c #924F34",
"1 c #826B43",
"2 c #AD6749",
"3 c #A18652",
"4 c #E6957D",
"5 c #C6AF76",
"6 c #2E5A83",
"7 c #284A95",
"8 c #386FB7",
"9 c #66738E",
"0 c #737384",
"q c #3785EE",
"w c #4D90C8",
"e c #5FB2E0",
"r c #F7BEA1",
"t c #F3DFB0",
"y c #9396C6",
"u c #BFCEF7",
"i c #CBCBCB",
"p c #F9DAC8",
"a c #C4C8F8",
"s c white",
/* pixels */
"iiiiiiiii,,,,,,,,,,iOOO.iiiii.++OO.,,,,iiiiiiiii,,,,,,,,,,iii",
",,,,,,,,,iiiiiiiiii,,,,,,,,,,iiiiiiiiii,,,,,,,,,iiiiiiiiii,,,",
",,,,,,,,,iiiiiiiiii,,,,,,,,,,iiiiiiiiii,,,,,,,,,iiiiiiiiii,,,",
",,,,,,,,,iiiiiiiiii,,,,,,,,,,iiiiiiiiii,,,,,,,,,iiiiiiiiii,,,",
",,,,,,,,,iiiiiiiiii,,,,,,,,,,iiiiiiiiii,,,,,,,,,iiiiiiiiii,,,",
",,,,,,,,,iiiiiiiiii,,,,,***********iiii,,,,,,,,,iiiiiiiiii,,,",
",,,,,,,,,iiiiiiiiii,****11111**1333****,,,,,,,,,iiiiiiiiii,,,",
",,,,,,,,,iiiiiiiii****111111******13511**,,,,,,,iiiiiiiiii,,,",
",,,,,,,,,iiiiiiii**311131*1111**111113331*,,,,,,iiiiiiiiii,,,",
",,,,,,,,,iiiiii**1311131*13331*111*3333531*,,,,,iiiiiiiiii,,,",
",,,,,,,,,iiiiii**1311131*13331*111*3333531*,,,,,iiiiiiiiii,,,",
"iiiiiiiii,,,,,%11331331*133333*1331*333351***iii,,,,,,,,,,iii",
"iiiiiiiii,,,,,%3351333*135335311331*133335*11%ii,,,,,,,,,,iii",
"iiiiiiiii,,,,%1555353313553353115531133335*551%i,,,,,,,,,,iii",
"iiiiiiiii,,,,%15535511135355531355311335331335%i,,,,,,,,,,iii",
"iiiiiiiii,,,%13553t511133155t3335551*335531335*%,,,,,,,,,,iii",
"iiiiiiiii,,,%13553t511133155t3335551*335531335*%,,,,,,,,,,iii",
"iiiiiiiii,,,%13555t311*313ttt135tt51*33553133t3%,,,,,,,,,,iii",
"iiiiiiiii,,,%13555t311*115tt513ttt51%33t53155t3%,,,,,,,,,,iii",
"iiiiiiiii,,%*1355353***11ttt*15ttt3*%33tt51ttt3%,,,,,,,,,,iii",
",,,,,,,,,ii%*1155153***13t55*15t553%*11tt51tt5*%iiiiiiiiii,,,",
",,,,,,,,,ii%*1155153***13t55*15t553%*11tt51tt5*%iiiiiiiiii,,,",
",,,,,,,,,ii%*1133151%%*1351113t5551%*115t5*553*%iiiiiiiiii,,,",
",,,,,,,,,ii%*1111*31%%1331113555331%%11555*553*%iiiiiiiiii,,,",
",,,,,,,,,ii%*1111*11%%133*33555311%<%11555*331%,iiiiiiiiii,,,",
",,,,,,,,,ii%**111*1%**13*1335531**%r4%%555*33*%,iiiiiiiiii,,,",
",,,,,,,,,ii%**1****%**11*355531*%%<<<%%155*11%,,iiiiiiiiii,,,",
",,,,,,,,,ii%**1****%**11*355531*%%<<<%%155*11%,,iiiiiiiiii,,,",
",,,,,,,,,iii%*1****%**11*33331*%<<   <<153*%%,,,iiiiiiiiii,,,",
",,,,,,,,,iii%*1****%**1*13111*%<  0XX<<151%%%,,,iiiiiiiiii,,,",
"iiiiiiiii,,,,%***1****1**%%%%%4<00u66<<*3*%iiiii,,,,,,,,,,iii",
"iiiiiiiii,,,,%***11*%%**%*%%rrr2uuus644*%%iiiiii,,,,,,,,,,iii",
"iiiiiiiii,,,,%***11*%%**%*%%rrr2uuus644*%%iiiiii,,,,,,,,,,iii",
"iiiiiiiii,,,,%***11*%%*%4%rrrrr444sqq44%pr2iiiii,,,,,,,,,,iii",
"iiiiiiiii,,,,,%***1***%%4rrrrrrrrrrppppppr2iiiii,,,,,,,,,,iii",
"iiiiiiiii,,,,,,%%*****%%4rrrrrrrrrrrppppr42iiiii,,,,,,,,,,iii",
"iiiiiiiii,,,,,,%%**%**%%44rrrrrrrrrrrrrr4$iiiiii,,,,,,,,,,iii",
"iiiiiiiii,,,,,,,,%*%**%%44444rrrrrrrr442$iiiiiii,,,,,,,,,,iii",
"iiiiiiiii,,,,,,,,%*%**%%44444rrrrrrrr442$iiiiiii,,,,,,,,,,iii",
"iiiiiiiii,,,,,,,,%*%%%%$2444444444422$$$iiiiiiii,,,,,,,,,,iii",
",,,,,,,,,iiiiiiiii%,%%%===$$$$$$$$$$$ii,,,,,,,,,iiiiiiiiii,,,",
",,,,,,,,,iiiiiiiiii,,,=-99==-:-:88e<iii,,,,,,,,,iiiiiiiiii,,,",
",,,,,,,,,iiiiiiiiii,==:9>----:->::8ewii,,,,,,,,,iiiiiiiiii,,,",
",,,,,,,,,iiiiiiiiii=::>:--===:-9>>w88ii,,,,,,,,,iiiiiiiiii,,,",
",,,,,,,,,iiiiiiiiii=::>:--===:-9>>w88ii,,,,,,,,,iiiiiiiiii,,,",
",,,,,,,,,iiiiiiiii=a>>--====--:-99ee7ii,,,,,,,,,iiiiiiiiii,,,",
",,,,,,,,,iiiiiiiii=-999:======::--887<<,,,,,,,,,iiiiiiiiii,,,",
",,,,,,,,,iiiiiiiii<4---=====-->-88w8222$,,,,,,,,iiiiiiiiii,,,",
",,,,,,,,,iiiiiiiii<4ppp4$=---:>:88w72<<$,,,,,,,,iiiiiiiiii,,,",
",,,,,,,,,iiiiiiiii<4ppp4$=---:>:88w72<<$,,,,,,,,iiiiiiiiii,,,",
"iiiiiiiii,,,,,,,,,<444r<$=---:>:8877<$$iiiiiiiii,,,,,,,,,,iii",
"iiiiiiiii,,,,,,,,,,<444$$---:>>-aay$$,,iiiiiiiii,,,,,,,,,,iii",
"iiiiiiiii,,,,,,,,,,i$$$=--::>>>=yyy,,,,iiiiiiiii,,,,,,,,,,iii",
"iiiiiiiii,,,,,,,,,,iiiio=======#;;;o,,,iiiiiiiii,,,,,,,,,,iii",
"iiiiiiiii,,,,,,,,,,iiio##@@@ooo@###@...iiiiiiiii,,,,,,,,,,iii",
"iiiiiiiii,,,,,,,,,,iiio##@@@ooo@###@...iiiiiiiii,,,,,,,,,,iii",
"iiiiiiiii,,,,,,,,,,i..O#@@ooi,oo@@O+&..iiiiiiiii,,,,,,,,,,iii",
"iiiiiiiii,,,,,,,,,,i..OOO.iii,,.OO+&O,,iiiiiiiii,,,,,,,,,,iii",
"iiiiiiiii,,,,,,,,,,iii.O++..i,,,..OO,,,iiiiiiiii,,,,,,,,,,iii",
",,,,,,,,,iiiiiiiiii,,,,,,,,,,iiiiiiiiii,,,,,,,,,iiiiiiiiii,,,",
",,,,,,,,,iiiiiiiiii,,,,,,,,,,iiiiiiiiii,,,,,,,,,iiiiiiiiii,,,",
",,,,,,,,,iiiiiiiiii,,,,,,,,,,iiiiiiiiii,,,,,,,,,iiiiiiiiii,,,"
};
