/* XPM */
static char *_134647a64a5462ebf0adbcd96e4f7dciC6GnGJJ6FR1ZmbS[] = {
/* columns rows colors chars-per-pixel */
"15 21 28 1 ",
"  c #DABFA2",
". c #D3BCA2",
"X c #D5BEA4",
"o c #D9C1A7",
"O c #D0B9A0",
"+ c #CDB498",
"@ c #CEB69C",
"# c #CDB18E",
"$ c #D4BA9B",
"% c #DCC2A7",
"& c #D8BC9E",
"* c #C1A88D",
"= c #C5AC8D",
"- c #3C352C",
"; c #D0B296",
": c #CEAE90",
"> c #DDC6AC",
", c #D9B496",
"< c #D8AD8C",
"1 c #413A32",
"2 c #D5B092",
"3 c #E5A982",
"4 c #B7967A",
"5 c #CDAB8C",
"6 c #C5B097",
"7 c #463D34",
"8 c #DAB18F",
"9 c #B6A28A",
/* pixels */
"444=**9444=**9-",
"+&.%%%o$&.%%%.1",
"O%X$& o%%X$& .1",
"+$:+OXOO$:+OXO1",
"623,..O+23,...7",
"=5<;@##=5<;@#:7",
"=@XoO+#=+XoO#=1",
"*<;%ooO5<;% o@-",
"6 .   oO .o  .1",
"@%.$& oo%X$& $1",
"6@:+OX..@:;OX@-",
"*23,..XO23,..@-",
"*:8;@###:8;@#=-",
"*+Xo@+##+.oO+=-",
"*<+>o%.5<;%oo@-",
"+ X   o. .   .7",
"@o.$&  oo.$& O1",
"6,<;OXX.@<;OX@-",
"*23,.O&O23,.O+-",
"*:,+@###:,+@#=-",
"=o>>o$$$X>>o$#-"
};
