/* XPM */
static char *result[] = {
/* columns rows colors chars-per-pixel */
"64 62 11 2 ",
"3G c #BE4E45",
"g3 c #008000",
"Be c #3F731A",
"wm c #A5563D",
"DD c #1F7A0E",
"T8 c #E94456",
"Ff c #626A27",
"2E c #E04550",
"b8 c #865F33",
"3j c #EA4255",
"3o c #D2484C",
"g3g3g3g3g3g3g3g3g3g3g3g3g3g3g3g3g3g3g3g3g3g3g3g3g3g3g3g3g3g3g3g3g3g3g3g3g3g3g3g3g3g3g3g3g3g3g3g3g3g3g3g3g3g3g3g3g3g3g3g3g3g3g3g3",
"g3g3g3g3g3g3g3g3g3g3g3g3g3g3g3g3g3g3g3g3g3g3g3g3g3g3g3g3g3BeFfBeg3g3g3g3g3g3g3g3g3g3g3g3g3g3g3g3g3g3g3g3g3g3g3g3g3g3g3g3g3g3g3g3",
"g3g3g3g3g3g3g3g3g3g3g3g3g3g3g3g3g3g3g3g3g3g3g3g3g3g3g3g3Ff3oT82Eb8g3g3g3g3g3g3g3g3g3g3g3g3g3g3g3g3g3g3g3g3g3g3g3g3g3g3g3g3g3g3g3",
"g3g3g3g3g3g3g3g3g3g3g3g3g3g3g3g3g3g3g3g3g3g3g3g3g3g3g3Be3o3jT8T82EFfg3g3g3g3g3g3g3g3g3g3g3g3g3g3g3g3g3g3g3g3g3g3g3g3g3g3g3g3g3g3",
"g3g3g3g3g3g3g3g3g3g3g3g3g3g3g3g3g3g3g3g3g3g3g3g3g3g3Be3G3jT8T8T8T83oBeg3g3g3g3g3g3g3g3g3g3g3g3g3g3g3g3g3g3g3g3g3g3g3g3g3g3g3g3g3",
"g3g3g3g3g3g3g3g3g3g3g3g3g3g3g3g3g3g3g3g3g3g3g3g3g3DD3G3jT8T8T8T8T83j3oBeg3g3g3g3g3g3g3g3g3g3g3g3g3g3g3g3g3g3g3g3g3g3g3g3g3g3g3g3",
"g3g3g3g3g3g3g3g3g3g3g3g3g3g3g3g3g3g3g3g3g3g3g3g3DDwm3jT8T8T8T8T8T8T8T83GDDg3g3g3g3g3g3g3g3g3g3g3g3g3g3g3g3g3g3g3g3g3g3g3g3g3g3g3",
"g3g3g3g3g3g3g3g3g3g3g3g3g3g3g3g3g3g3g3g3g3g3g3g3b83jT8T8T8T8T8T8T8T8T83jwmDDg3g3g3g3g3g3g3g3g3g3g3g3g3g3g3g3g3g3g3g3g3g3g3g3g3g3",
"g3g3g3g3g3g3g3g3g3g3g3g3g3g3g3g3g3g3g3g3g3g3g3Ff2ET83jT8T8T8T8T8T8T8T8T83jb8g3g3g3g3g3g3g3g3g3g3g3g3g3g3g3g3g3g3g3g3g3g3g3g3g3g3",
"g3g3g3g3g3g3g3g3g3g3g3g3g3g3g3g3g3g3g3g3g3g3Ff2E3jT8T8T8T8T8T8T8T8T8T8T8T82Eb8g3g3g3g3g3g3g3g3g3g3g3g3g3g3g3g3g3g3g3g3g3g3g3g3g3",
"g3g3g3g3g3g3g3g3g3g3g3g3g3g3g3g3g3g3g3g3g3Be3o3jT8T8T8T8T8T8T8T8T8T8T8T8T8T83oFfg3g3g3g3g3g3g3g3g3g3g3g3g3g3g3g3g3g3g3g3g3g3g3g3",
"g3g3g3g3g3g3g3g3g3g3g3g3g3g3g3g3g3g3g3g3DD3G3jT8T8T8T8T8T8T8T8T8T8T8T8T8T8T83j3oBeg3g3g3g3g3g3g3g3g3g3g3g3g3g3g3g3g3g3g3g3g3g3g3",
"g3g3g3g3g3g3g3g3g3g3g3g3g3g3g3g3g3g3g3DDwm3jT8T8T8T8T8T8T8T8T8T8T8T8T8T8T8T8T83j3GBeg3g3g3g3g3g3g3g3g3g3g3g3g3g3g3g3g3g3g3g3g3g3",
"g3g3g3g3g3g3g3g3g3g3g3g3g3g3g3g3g3g3g3wm3jT8T8T8T8T8T8T8T8T8T8T8T8T8T8T8T8T8T8T83j3GDDg3g3g3g3g3g3g3g3g3g3g3g3g3g3g3g3g3g3g3g3g3",
"g3g3g3g3g3g3g3g3g3g3g3g3g3g3g3g3g3g3b83jT8T8T8T8T8T8T8T8T8T8T8T8T8T8T8T8T8T8T8T8T8T8wmDDg3g3g3g3g3g3g3g3g3g3g3g3g3g3g3g3g3g3g3g3",
"g3g3g3g3g3g3g3g3g3g3g3g3g3g3g3g3g3Ff2E3jT8T8T8T8T8T8T8T8T8T8T8T8T8T8T8T8T8T8T8T8T8T8T8b8g3g3g3g3g3g3g3g3g3g3g3g3g3g3g3g3g3g3g3g3",
"g3g3g3g3g3g3g3g3g3g3g3g3g3g3g3g3Ff3oT8T8T8T8T8T8T8T8T8T8T8T8T8T8T8T8T8T8T8T8T8T8T8T8T82EFfg3g3g3g3g3g3g3g3g3g3g3g3g3g3g3g3g3g3g3",
"g3g3g3g3g3g3g3g3g3g3g3g3g3g3g3Be3o3jT8T8T8T8T8T8T8T8T8T8T8T8T8T8T8T8T8T8T8T8T8T8T8T8T8T82EFfg3g3g3g3g3g3g3g3g3g3g3g3g3g3g3g3g3g3",
"g3g3g3g3g3g3g3g3g3g3g3g3g3g3DD3G3jT8T8T8T8T8T8T8T8T8T8T8T8T8T8T8T8T8T8T8T8T8T8T8T8T8T8T8T83oBeg3g3g3g3g3g3g3g3g3g3g3g3g3g3g3g3g3",
"g3g3g3g3g3g3g3g3g3g3g3g3g3DDwm3jT8T8T8T8T8T8T8T8T8T8T8T8T8T8T8T8T8T8T8T8T8T8T8T8T8T8T8T8T8T83GDDg3g3g3g3g3g3g3g3g3g3g3g3g3g3g3g3",
"g3g3g3g3g3g3g3g3g3g3g3g3g3b83j3j3jT8T8T8T8T8T8T8T8T8T8T8T8T8T8T8T8T8T8T8T8T8T8T8T8T8T8T8T8T83jwmDDg3g3g3g3g3g3g3g3g3g3g3g3g3g3g3",
"g3g3g3g3g3g3g3g3g3g3g3g3b83jT8T8T8T8T8T8T8T8T8T8T8T8T8T8T8T8T8T8T8T8T8T8T8T8T8T8T8T8T8T8T8T8T8T8wmg3g3g3g3g3g3g3g3g3g3g3g3g3g3g3",
"g3g3g3g3g3g3g3g3g3g3g3Ff2ET8T8T8T8T8T8T8T8T8T8T8T8T8T8T8T8T8T8T8T8T8T8T8T8T8T8T8T8T8T8T8T8T8T8T82Eb8g3g3g3g3g3g3g3g3g3g3g3g3g3g3",
"g3g3g3g3g3g3g3g3g3g3Be3o3jT8T8T8T8T8T8T8T8T8T8T8T8T8T8T8T8T8T8T8T8T8T8T8T8T8T8T8T8T8T8T8T8T8T8T8T82EFfg3g3g3g3g3g3g3g3g3g3g3g3g3",
"g3g3g3g3g3g3g3g3g3Be3G3jT8T8T8T8T8T8T8T8T8T8T8T8T8T8T8T8T8T8T8T8T8T8T8T8T8T8T8T8T8T8T8T8T8T8T8T8T83j3oBeg3g3g3g3g3g3g3g3g3g3g3g3",
"g3g3g3g3g3g3g3g3DD3G3jT8T8T8T8T8T8T8T8T8T8T8T8T8T8T8T8T8T8T8T8T8T8T8T8T8T8T8T8T8T8T8T8T8T8T8T8T8T83j3j3GBeg3g3g3g3g3g3g3g3g3g3g3",
"g3g3g3g3g3g3g3DDwmT8T8T8T8T8T8T8T8T8T8T8T8T8T8T8T8T8T8T8T8T8T8T8T8T8T8T8T8T8T8T8T8T8T8T8T8T8T8T8T8T8T83j3GDDg3g3g3g3g3g3g3g3g3g3",
"g3g3g3g3g3g3g3b83jT8T8T8T8T8T8T8T8T8T8T8T8T8T8T8T8T8T8T8T8T8T8T8T8T8T8T8T8T8T8T8T8T8T8T8T8T8T8T8T8T8T8T8T8wmDDg3g3g3g3g3g3g3g3g3",
"g3g3g3g3g3g3Ff2ET8T8T8T8T8T8T8T8T8T8T8T8T8T8T8T8T8T8T8T8T8T8T8T8T8T8T8T8T8T8T8T8T8T8T8T8T8T8T8T8T8T8T8T8T83jb8g3g3g3g3g3g3g3g3g3",
"g3g3g3g3g3DD3o3jT8T8T8T8T8T8T8T8T8T8T8T8T8T8T8T8T8T8T8T8T8T8T8T8T8T8T8T8T8T8T8T8T8T8T8T8T8T8T8T8T8T8T8T8T8T82EBeg3g3g3g3g3g3g3g3",
"g3g3g3g3g3Be2ET8T8T8T8T8T8T8T8T8T8T8T8T8T8T8T8T8T8T8T8T8T8T8T8T8T8T8T8T8T8T8T8T8T8T8T8T8T8T8T8T8T8T8T8T8T8T83jFfg3g3g3g3g3g3g3g3",
"g3g3g3g3g3Be2E3jT8T8T8T8T8T8T8T8T8T8T8T8T8T8T8T8T8T8T8T8T8T8T8T8T8T8T8T8T8T8T8T8T8T8T8T8T8T8T8T8T8T8T8T8T8T82EFfg3g3g3g3g3g3g3g3",
"g3g3g3g3g3g3b83jT8T8T8T8T8T8T8T8T8T8T8T8T8T8T8T8T8T8T8T8T8T8T8T8T8T8T8T8T8T8T8T8T8T8T8T8T8T8T8T8T8T8T8T8T83jwmDDg3g3g3g3g3g3g3g3",
"g3g3g3g3g3g3DDwmT8T83jT8T8T8T8T8T8T8T8T8T8T8T8T8T8T8T8T8T8T8T8T8T8T8T8T8T8T8T8T8T8T8T8T8T8T8T8T8T8T8T8T83j3GDDg3g3g3g3g3g3g3g3g3",
"g3g3g3g3g3g3g3Be3G3jT8T8T8T8T8T8T8T8T8T8T8T8T8T8T8T8T8T8T8T8T8T8T8T8T8T8T8T8T8T8T8T8T8T8T8T8T8T8T8T8T83j3oBeg3g3g3g3g3g3g3g3g3g3",
"g3g3g3g3g3g3g3g3Be3oT8T8T8T8T8T8T8T8T8T8T8T8T8T8T8T8T8T8T8T8T8T8T8T8T8T8T8T8T8T8T8T8T8T8T8T8T8T8T8T8T82EFfg3g3g3g3g3g3g3g3g3g3g3",
"g3g3g3g3g3g3g3g3g3Ff2E3jT8T8T8T8T8T8T8T8T8T8T8T8T8T8T8T8T8T8T8T8T8T8T8T8T8T8T8T8T8T8T8T8T8T8T8T8T8T82EFfg3g3g3g3g3g3g3g3g3g3g3g3",
"g3g3g3g3g3g3g3g3g3g3Ff2ET8T8T8T8T8T8T8T8T8T8T8T8T8T8T8T8T8T8T8T8T8T8T8T8T8T8T8T8T8T8T8T8T8T8T8T8T83jb8g3g3g3g3g3g3g3g3g3g3g3g3g3",
"g3g3g3g3g3g3g3g3g3g3g3b83jT8T8T8T8T8T8T8T8T8T8T8T8T8T8T8T8T8T8T8T8T8T8T8T8T8T8T8T8T8T8T8T8T8T8T83jwmDDg3g3g3g3g3g3g3g3g3g3g3g3g3",
"g3g3g3g3g3g3g3g3g3g3g3DDwmT8T8T8T8T8T8T8T8T8T8T8T8T8T8T8T8T8T8T8T8T8T8T8T8T8T8T8T8T8T8T8T8T8T83j3GDDg3g3g3g3g3g3g3g3g3g3g3g3g3g3",
"g3g3g3g3g3g3g3g3g3g3g3g3DD3G3jT8T8T8T8T8T8T8T8T8T8T8T8T8T8T8T8T8T8T8T8T8T8T8T8T8T8T8T8T8T8T83j3oBeg3g3g3g3g3g3g3g3g3g3g3g3g3g3g3",
"g3g3g3g3g3g3g3g3g3g3g3g3g3Be3G3jT8T8T8T8T8T8T8T8T8T8T8T8T8T8T8T8T8T8T8T8T8T8T8T8T8T8T8T8T83j3oBeg3g3g3g3g3g3g3g3g3g3g3g3g3g3g3g3",
"g3g3g3g3g3g3g3g3g3g3g3g3g3g3Be3o3jT8T8T8T8T8T8T8T8T8T8T8T8T8T8T8T8T8T8T8T8T8T8T8T8T8T8T83j2EFfg3g3g3g3g3g3g3g3g3g3g3g3g3g3g3g3g3",
"g3g3g3g3g3g3g3g3g3g3g3g3g3g3g3Ff2E3jT8T8T8T8T8T8T8T8T8T8T8T8T8T8T8T8T8T8T8T8T8T8T8T8T8T82Eb8g3g3g3g3g3g3g3g3g3g3g3g3g3g3g3g3g3g3",
"g3g3g3g3g3g3g3g3g3g3g3g3g3g3g3g3b8T8T8T8T8T8T8T8T8T8T8T8T8T8T8T8T8T8T8T8T8T8T8T8T8T83j3jb8g3g3g3g3g3g3g3g3g3g3g3g3g3g3g3g3g3g3g3",
"g3g3g3g3g3g3g3g3g3g3g3g3g3g3g3g3g3b83jT8T8T8T8T8T8T8T8T8T8T8T8T8T8T8T8T8T8T8T8T8T8T83jwmDDg3g3g3g3g3g3g3g3g3g3g3g3g3g3g3g3g3g3g3",
"g3g3g3g3g3g3g3g3g3g3g3g3g3g3g3g3g3DDwm3jT8T8T8T8T8T8T8T8T8T8T8T8T8T8T8T8T8T8T8T8T83j3GDDg3g3g3g3g3g3g3g3g3g3g3g3g3g3g3g3g3g3g3g3",
"g3g3g3g3g3g3g3g3g3g3g3g3g3g3g3g3g3g3DD3G3jT8T8T8T8T8T8T8T8T8T8T8T8T8T8T8T8T8T8T8T83oBeg3g3g3g3g3g3g3g3g3g3g3g3g3g3g3g3g3g3g3g3g3",
"g3g3g3g3g3g3g3g3g3g3g3g3g3g3g3g3g3g3g3Be3o3jT8T8T8T8T8T8T8T8T8T8T8T8T8T8T8T8T8T83oFfg3g3g3g3g3g3g3g3g3g3g3g3g3g3g3g3g3g3g3g3g3g3",
"g3g3g3g3g3g3g3g3g3g3g3g3g3g3g3g3g3g3g3g3Ff3oT8T8T8T8T8T8T8T8T8T8T8T8T8T8T8T83j2EFfg3g3g3g3g3g3g3g3g3g3g3g3g3g3g3g3g3g3g3g3g3g3g3",
"g3g3g3g3g3g3g3g3g3g3g3g3g3g3g3g3g3g3g3g3g3Ff2ET8T8T8T8T8T8T8T8T8T8T8T8T8T83jT8b8g3g3g3g3g3g3g3g3g3g3g3g3g3g3g3g3g3g3g3g3g3g3g3g3",
"g3g3g3g3g3g3g3g3g3g3g3g3g3g3g3g3g3g3g3g3g3g3b8T8T8T8T8T8T8T8T8T8T8T8T8T83j3jwmDDg3g3g3g3g3g3g3g3g3g3g3g3g3g3g3g3g3g3g3g3g3g3g3g3",
"g3g3g3g3g3g3g3g3g3g3g3g3g3g3g3g3g3g3g3g3g3g3g3wmT8T8T8T8T8T8T8T8T8T8T8T83jwmDDg3g3g3g3g3g3g3g3g3g3g3g3g3g3g3g3g3g3g3g3g3g3g3g3g3",
"g3g3g3g3g3g3g3g3g3g3g3g3g3g3g3g3g3g3g3g3g3g3g3DDwm3jT8T8T8T8T8T8T8T8T83j3GBeg3g3g3g3g3g3g3g3g3g3g3g3g3g3g3g3g3g3g3g3g3g3g3g3g3g3",
"g3g3g3g3g3g3g3g3g3g3g3g3g3g3g3g3g3g3g3g3g3g3g3g3Be3G3jT8T8T8T8T8T8T83j3oBeg3g3g3g3g3g3g3g3g3g3g3g3g3g3g3g3g3g3g3g3g3g3g3g3g3g3g3",
"g3g3g3g3g3g3g3g3g3g3g3g3g3g3g3g3g3g3g3g3g3g3g3g3g3Be3oT8T8T8T8T8T83j2EFfg3g3g3g3g3g3g3g3g3g3g3g3g3g3g3g3g3g3g3g3g3g3g3g3g3g3g3g3",
"g3g3g3g3g3g3g3g3g3g3g3g3g3g3g3g3g3g3g3g3g3g3g3g3g3g3Ff2ET8T8T8T8T82Eb8g3g3g3g3g3g3g3g3g3g3g3g3g3g3g3g3g3g3g3g3g3g3g3g3g3g3g3g3g3",
"g3g3g3g3g3g3g3g3g3g3g3g3g3g3g3g3g3g3g3g3g3g3g3g3g3g3g3b83j3jT8T83jb8g3g3g3g3g3g3g3g3g3g3g3g3g3g3g3g3g3g3g3g3g3g3g3g3g3g3g3g3g3g3",
"g3g3g3g3g3g3g3g3g3g3g3g3g3g3g3g3g3g3g3g3g3g3g3g3g3g3g3g3b83j3j3jwmDDg3g3g3g3g3g3g3g3g3g3g3g3g3g3g3g3g3g3g3g3g3g3g3g3g3g3g3g3g3g3",
"g3g3g3g3g3g3g3g3g3g3g3g3g3g3g3g3g3g3g3g3g3g3g3g3g3g3g3g3DDFfwmb8DDg3g3g3g3g3g3g3g3g3g3g3g3g3g3g3g3g3g3g3g3g3g3g3g3g3g3g3g3g3g3g3",
"g3g3g3g3g3g3g3g3g3g3g3g3g3g3g3g3g3g3g3g3g3g3g3g3g3g3g3g3g3g3g3g3g3g3g3g3g3g3g3g3g3g3g3g3g3g3g3g3g3g3g3g3g3g3g3g3g3g3g3g3g3g3g3g3",
"g3g3g3g3g3g3g3g3g3g3g3g3g3g3g3g3g3g3g3g3g3g3g3g3g3g3g3g3g3g3g3g3g3g3g3g3g3g3g3g3g3g3g3g3g3g3g3g3g3g3g3g3g3g3g3g3g3g3g3g3g3g3g3g3"
};
