/* XPM */
static char *result[] = {
/* columns rows colors chars-per-pixel */
"64 62 7 2 ",
"ht c #164413",
"9d c #008000",
"Am c #1F311A",
"1n c #2A2723",
"bA c #10550D",
"XH c #0C660A",
"pB c #047503",
"9d9d9d9d9d9d9d9d9d9d9d9d9d9d9d9d9d9d9d9d9d9d9d9d9d9d9d9d9d9d9d9d9d9d9d9d9d9d9d9d9d9d9d9d9d9d9d9d9d9d9d9d9d9d9d9d9d9d9d9d9d9d9d9d",
"9d9d9d9d9d9d9d9d9d9d9d9d9d9d9d9d9d9d9d9d9d9d9d9d9d9d9d9d9d9d9dXHhthtpB9d9d9d9d9d9d9d9d9d9d9d9d9d9d9d9d9d9d9d9d9d9d9d9d9d9d9d9d9d",
"9d9d9d9d9d9d9d9d9d9d9d9d9d9d9d9d9d9d9d9d9d9d9d9d9d9d9d9d9d9dbA1n1n1nAmXH9d9d9d9d9d9d9d9d9d9d9d9d9d9d9d9d9d9d9d9d9d9d9d9d9d9d9d9d",
"9d9d9d9d9d9d9d9d9d9d9d9d9d9d9d9d9d9d9d9d9d9d9d9d9d9d9d9dpBbA1n1n1n1n1n1nXH9d9d9d9d9d9d9d9d9d9d9d9d9d9d9d9d9d9d9d9d9d9d9d9d9d9d9d",
"9d9d9d9d9d9d9d9d9d9d9d9d9d9d9d9d9d9d9d9d9d9d9d9d9d9d9dpBht1n1n1n1n1n1n1n1nbA9d9d9d9d9d9d9d9d9d9d9d9d9d9d9d9d9d9d9d9d9d9d9d9d9d9d",
"9d9d9d9d9d9d9d9d9d9d9d9d9d9d9d9d9d9d9d9d9d9d9d9d9d9dpBht1n1n1n1n1n1n1n1n1n1nhtpB9d9d9d9d9d9d9d9d9d9d9d9d9d9d9d9d9d9d9d9d9d9d9d9d",
"9d9d9d9d9d9d9d9d9d9d9d9d9d9d9d9d9d9d9d9d9d9d9d9d9dXHAm1n1n1n1n1n1n1n1n1n1n1n1nhtpB9d9d9d9d9d9d9d9d9d9d9d9d9d9d9d9d9d9d9d9d9d9d9d",
"9d9d9d9d9d9d9d9d9d9d9d9d9d9d9d9d9d9d9d9d9d9d9d9dXHAm1n1n1n1n1n1n1n1n1n1n1n1n1n1nAmpB9d9d9d9d9d9d9d9d9d9d9d9d9d9d9d9d9d9d9d9d9d9d",
"9d9d9d9d9d9d9d9d9d9d9d9d9d9d9d9d9d9d9d9d9d9d9dbAAm1n1n1n1n1n1n1n1n1n1n1n1n1n1n1n1nAmXH9d9d9d9d9d9d9d9d9d9d9d9d9d9d9d9d9d9d9d9d9d",
"9d9d9d9d9d9d9d9d9d9d9d9d9d9d9d9d9d9d9d9d9d9dbA1n1n1n1n1n1n1n1n1n1n1n1n1n1n1n1n1n1n1nAmXH9d9d9d9d9d9d9d9d9d9d9d9d9d9d9d9d9d9d9d9d",
"9d9d9d9d9d9d9d9d9d9d9d9d9d9d9d9d9d9d9d9dpBht1n1n1n1n1n1n1n1n1n1n1n1n1n1n1n1n1n1n1n1n1n1nbA9d9d9d9d9d9d9d9d9d9d9d9d9d9d9d9d9d9d9d",
"9d9d9d9d9d9d9d9d9d9d9d9d9d9d9d9d9d9d9dpBht1n1n1n1n1n1n1n1n1n1n1n1n1n1n1n1n1n1n1n1n1n1n1n1nbApB9d9d9d9d9d9d9d9d9d9d9d9d9d9d9d9d9d",
"9d9d9d9d9d9d9d9d9d9d9d9d9d9d9d9d9d9dpBAm1n1n1n1n1n1n1n1n1n1n1n1n1n1n1n1n1n1n1n1n1n1n1n1n1n1nhtpB9d9d9d9d9d9d9d9d9d9d9d9d9d9d9d9d",
"9d9d9d9d9d9d9d9d9d9d9d9d9d9d9d9d9dXHAm1n1n1n1n1n1n1n1n1n1n1n1n1n1n1n1n1n1n1n1n1n1n1n1n1n1n1n1nAmpB9d9d9d9d9d9d9d9d9d9d9d9d9d9d9d",
"9d9d9d9d9d9d9d9d9d9d9d9d9d9d9d9dbAAm1n1n1n1n1n1n1n1n1n1n1n1n1n1n1n1n1n1n1n1n1n1n1n1n1n1n1n1n1n1nAmXH9d9d9d9d9d9d9d9d9d9d9d9d9d9d",
"9d9d9d9d9d9d9d9d9d9d9d9d9d9d9dbA1n1n1n1n1n1n1n1n1n1n1n1n1n1n1n1n1n1n1n1n1n1n1n1n1n1n1n1n1n1n1n1n1nAmXH9d9d9d9d9d9d9d9d9d9d9d9d9d",
"9d9d9d9d9d9d9d9d9d9d9d9d9dpBht1n1n1n1n1n1n1n1n1n1n1n1n1n1n1n1n1n1n1n1n1n1n1n1n1n1n1n1n1n1n1n1n1n1n1n1nbA9d9d9d9d9d9d9d9d9d9d9d9d",
"9d9d9d9d9d9d9d9d9d9d9d9d9dht1n1n1n1n1n1n1n1n1n1n1n1n1n1n1n1n1n1n1n1n1n1n1n1n1n1n1n1n1n1n1n1n1n1n1n1n1n1nbA9d9d9d9d9d9d9d9d9d9d9d",
"9d9d9d9d9d9d9d9d9d9d9dpBht1n1n1n1n1n1n1n1n1n1n1n1n1n1n1n1n1n1n1n1n1n1n1n1n1n1n1n1n1n1n1n1n1n1n1n1n1n1n1n1nbA9d9d9d9d9d9d9d9d9d9d",
"9d9d9d9d9d9d9d9d9d9d9dht1n1n1n1n1n1n1n1n1n1n1n1n1n1n1n1n1n1n1n1n1n1n1n1n1n1n1n1n1n1n1n1n1n1n1n1n1n1n1n1n1n1nbA9d9d9d9d9d9d9d9d9d",
"9d9d9d9d9d9d9d9d9d9dbA1n1n1n1n1n1n1n1n1n1n1n1n1n1n1n1n1n1n1n1n1n1n1n1n1n1n1n1n1n1n1n1n1n1n1n1n1n1n1n1n1n1n1n1nXH9d9d9d9d9d9d9d9d",
"9d9d9d9d9d9d9d9d9dXH1n1n1n1n1n1n1n1n1n1n1n1n1n1n1n1n1n1n1n1n1n1n1n1n1n1n1n1n1n1n1n1n1n1n1n1n1n1n1n1n1n1n1n1n1nAmpB9d9d9d9d9d9d9d",
"9d9d9d9d9d9d9d9dpBAm1n1n1n1n1n1n1n1n1n1n1n1n1n1n1n1n1n1n1n1n1n1n1n1n1n1n1n1n1n1n1n1n1n1n1n1n1n1n1n1n1n1n1n1n1n1nht9d9d9d9d9d9d9d",
"9d9d9d9d9d9d9d9dbA1n1n1n1n1n1n1n1n1n1n1n1n1n1n1n1n1n1n1n1n1n1n1n1n1n1n1n1n1n1n1n1n1n1n1n1n1n1n1n1n1n1n1n1n1n1n1n1nXH9d9d9d9d9d9d",
"9d9d9d9d9d9d9dpBAm1n1n1n1n1n1n1n1n1n1n1n1n1n1n1n1n1n1n1n1n1n1n1n1n1n1n1n1n1n1n1n1n1n1n1n1n1n1n1n1n1n1n1n1n1n1n1n1nAm9d9d9d9d9d9d",
"9d9d9d9d9d9d9dht1n1n1n1n1n1n1n1n1n1n1n1n1n1n1n1n1n1n1n1n1n1n1n1n1n1n1n1n1n1n1n1n1n1n1n1n1n1n1n1n1n1n1n1n1n1n1n1n1n1nXH9d9d9d9d9d",
"9d9d9d9d9d9dpBAm1n1n1n1n1n1n1n1n1n1n1n1n1n1n1n1n1n1n1n1n1n1n1n1n1n1n1n1n1n1n1n1n1n1n1n1n1n1n1n1n1n1n1n1n1n1n1n1n1n1nht9d9d9d9d9d",
"9d9d9d9d9d9dXH1n1n1n1n1n1n1n1n1n1n1n1n1n1n1n1n1n1n1n1n1n1n1n1n1n1n1n1n1n1n1n1n1n1n1n1n1n1n1n1n1n1n1n1n1n1n1n1n1n1n1n1npB9d9d9d9d",
"9d9d9d9d9d9dht1n1n1n1n1n1n1n1n1n1n1n1n1n1n1n1n1n1n1n1n1n1n1n1n1n1n1n1n1n1n1n1n1n1n1n1n1n1n1n1n1n1n1n1n1n1n1n1n1n1n1n1nbA9d9d9d9d",
"9d9d9d9d9dpBAm1n1n1n1n1n1n1n1n1n1n1n1n1n1n1n1n1n1n1n1n1n1n1n1n1n1n1n1n1n1n1n1n1n1n1n1n1n1n1n1n1n1n1n1n1n1n1n1n1n1n1n1nht9d9d9d9d",
"9d9d9d9d9dpBAm1n1n1n1n1n1n1n1n1n1n1n1n1n1n1n1n1n1n1n1n1n1n1n1n1n1n1n1n1n1n1n1n1n1n1n1n1n1n1n1n1n1n1n1n1n1n1n1n1n1n1n1nAm9d9d9d9d",
"9d9d9d9d9dXH1n1n1n1n1n1n1n1n1n1n1n1n1n1n1n1n1n1n1n1n1n1n1n1n1n1n1n1n1n1n1n1n1n1n1n1n1n1n1n1n1n1n1n1n1n1n1n1n1n1n1n1n1nAmpB9d9d9d",
"9d9d9d9d9dXH1n1n1n1n1n1n1n1n1n1n1n1n1n1n1n1n1n1n1n1n1n1n1n1n1n1n1n1n1n1n1n1n1n1n1n1n1n1n1n1n1n1n1n1n1n1n1n1n1n1n1n1n1nAmpB9d9d9d",
"9d9d9d9d9dXH1n1n1n1n1n1n1n1n1n1n1n1n1n1n1n1n1n1n1n1n1n1n1n1n1n1n1n1n1n1n1n1n1n1n1n1n1n1n1n1n1n1n1n1n1n1n1n1n1n1n1n1n1nAmpB9d9d9d",
"9d9d9d9d9dXH1n1n1n1n1n1n1n1n1n1n1n1n1n1n1n1n1n1n1n1n1n1n1n1n1n1n1n1n1n1n1n1n1n1n1n1n1n1n1n1n1n1n1n1n1n1n1n1n1n1n1n1n1nAmpB9d9d9d",
"9d9d9d9d9dpBAm1n1n1n1n1n1n1n1n1n1n1n1n1n1n1n1n1n1n1n1n1n1n1n1n1n1n1n1n1n1n1n1n1n1n1n1n1n1n1n1n1n1n1n1n1n1n1n1n1n1n1n1nht9d9d9d9d",
"9d9d9d9d9dpBAm1n1n1n1n1n1n1n1n1n1n1n1n1n1n1n1n1n1n1n1n1n1n1n1n1n1n1n1n1n1n1n1n1n1n1n1n1n1n1n1n1n1n1n1n1n1n1n1n1n1n1n1nht9d9d9d9d",
"9d9d9d9d9d9dht1n1n1n1n1n1n1n1n1n1n1n1n1n1n1n1n1n1n1n1n1n1n1n1n1n1n1n1n1n1n1n1n1n1n1n1n1n1n1n1n1n1n1n1n1n1n1n1n1n1n1n1nbA9d9d9d9d",
"9d9d9d9d9d9dXH1n1n1n1n1n1n1n1n1n1n1n1n1n1n1n1n1n1n1n1n1n1n1n1n1n1n1n1n1n1n1n1n1n1n1n1n1n1n1n1n1n1n1n1n1n1n1n1n1n1n1n1npB9d9d9d9d",
"9d9d9d9d9d9dpBAm1n1n1n1n1n1n1n1n1n1n1n1n1n1n1n1n1n1n1n1n1n1n1n1n1n1n1n1n1n1n1n1n1n1n1n1n1n1n1n1n1n1n1n1n1n1n1n1n1n1nht9d9d9d9d9d",
"9d9d9d9d9d9d9dht1n1n1n1n1n1n1n1n1n1n1n1n1n1n1n1n1n1n1n1n1n1n1n1n1n1n1n1n1n1n1n1n1n1n1n1n1n1n1n1n1n1n1n1n1n1n1n1n1n1nbA9d9d9d9d9d",
"9d9d9d9d9d9d9dpBAm1n1n1n1n1n1n1n1n1n1n1n1n1n1n1n1n1n1n1n1n1n1n1n1n1n1n1n1n1n1n1n1n1n1n1n1n1n1n1n1n1n1n1n1n1n1n1n1nhtpB9d9d9d9d9d",
"9d9d9d9d9d9d9d9dbA1n1n1n1n1n1n1n1n1n1n1n1n1n1n1n1n1n1n1n1n1n1n1n1n1n1n1n1n1n1n1n1n1n1n1n1n1n1n1n1n1n1n1n1n1n1n1n1nXH9d9d9d9d9d9d",
"9d9d9d9d9d9d9d9d9dht1n1n1n1n1n1n1n1n1n1n1n1n1n1n1n1n1n1n1n1nAm1n1n1n1n1n1n1n1n1n1n1n1n1n1n1n1n1n1n1n1n1n1n1n1n1nbA9d9d9d9d9d9d9d",
"9d9d9d9d9d9d9d9d9dpBht1n1n1n1n1n1n1n1n1n1n1n1n1n1n1n1n1n1nbAht1n1n1n1nhtht1n1n1n1n1n1n1n1n1n1n1n1n1n1n1n1n1n1nbA9d9d9d9d9d9d9d9d",
"9d9d9d9d9d9d9d9d9d9dpBht1n1n1n1n1n1n1n1n1n1n1n1n1n1n1nAmXHpBAm1n1n1n1nhtpBbA1n1n1n1n1n1n1n1n1n1n1n1n1n1n1n1nbA9d9d9d9d9d9d9d9d9d",
"9d9d9d9d9d9d9d9d9d9d9d9dXHAm1n1n1n1n1n1n1n1n1n1n1nAmbApB9dXH1n1n1n1n1nAmpB9dXHht1n1n1n1n1n1n1n1n1n1n1n1nhtXH9d9d9d9d9d9d9d9d9d9d",
"9d9d9d9d9d9d9d9d9d9d9d9d9dpBbAhtAm1n1n1n1n1n1nAmbApB9d9d9dbA1n1n1n1n1n1nXH9d9d9dXHhtAm1n1n1n1n1n1nAmhtXH9d9d9d9d9d9d9d9d9d9d9d9d",
"9d9d9d9d9d9d9d9d9d9d9d9d9d9d9d9dpBXHXHbAbAXHpB9d9d9d9d9dpBAm1n1n1n1n1n1nbA9d9d9d9d9d9dXHXHbAbAXHXHpB9d9d9d9d9d9d9d9d9d9d9d9d9d9d",
"9d9d9d9d9d9d9d9d9d9d9d9d9d9d9d9d9d9d9d9d9d9d9d9d9d9d9d9dXH1n1n1n1n1n1n1nAmpB9d9d9d9d9d9d9d9d9d9d9d9d9d9d9d9d9d9d9d9d9d9d9d9d9d9d",
"9d9d9d9d9d9d9d9d9d9d9d9d9d9d9d9d9d9d9d9d9d9d9d9d9d9d9d9dht1n1n1n1n1n1n1n1nXH9d9d9d9d9d9d9d9d9d9d9d9d9d9d9d9d9d9d9d9d9d9d9d9d9d9d",
"9d9d9d9d9d9d9d9d9d9d9d9d9d9d9d9d9d9d9d9d9d9d9d9d9d9d9dpB1n1n1n1n1n1n1n1n1nAm9d9d9d9d9d9d9d9d9d9d9d9d9d9d9d9d9d9d9d9d9d9d9d9d9d9d",
"9d9d9d9d9d9d9d9d9d9d9d9d9d9d9d9d9d9d9d9d9d9d9d9d9d9d9dht1n1n1n1n1n1n1n1n1n1nbA9d9d9d9d9d9d9d9d9d9d9d9d9d9d9d9d9d9d9d9d9d9d9d9d9d",
"9d9d9d9d9d9d9d9d9d9d9d9d9d9d9d9d9d9d9d9d9d9d9d9d9d9dbA1n1n1n1n1n1n1n1n1n1n1nAmpB9d9d9d9d9d9d9d9d9d9d9d9d9d9d9d9d9d9d9d9d9d9d9d9d",
"9d9d9d9d9d9d9d9d9d9d9d9d9d9d9d9d9d9d9d9d9d9d9d9d9dXHAm1n1n1n1n1n1n1n1n1n1n1n1nhtpB9d9d9d9d9d9d9d9d9d9d9d9d9d9d9d9d9d9d9d9d9d9d9d",
"9d9d9d9d9d9d9d9d9d9d9d9d9d9d9d9d9d9d9d9d9d9d9d9dXHAm1n1n1n1n1n1n1n1n1n1n1n1n1n1nAmpB9d9d9d9d9d9d9d9d9d9d9d9d9d9d9d9d9d9d9d9d9d9d",
"9d9d9d9d9d9d9d9d9d9d9d9d9d9d9d9d9d9d9d9d9d9dpBht1n1n1n1n1n1n1n1n1n1n1n1n1n1n1n1n1nAmbA9d9d9d9d9d9d9d9d9d9d9d9d9d9d9d9d9d9d9d9d9d",
"9d9d9d9d9d9d9d9d9d9d9d9d9d9d9d9d9d9d9d9d9d9dbA1n1n1n1n1n1n1n1n1n1n1n1n1n1n1n1n1n1n1nAmpB9d9d9d9d9d9d9d9d9d9d9d9d9d9d9d9d9d9d9d9d",
"9d9d9d9d9d9d9d9d9d9d9d9d9d9d9d9d9d9d9d9d9d9dXHAm1n1n1n1n1n1n1n1n1n1n1n1n1n1n1n1n1n1nAmpB9d9d9d9d9d9d9d9d9d9d9d9d9d9d9d9d9d9d9d9d",
"9d9d9d9d9d9d9d9d9d9d9d9d9d9d9d9d9d9d9d9d9d9d9dpBXHXHXHXHXHXHXHXHXHXHXHXHXHXHXHXHXHXHpB9d9d9d9d9d9d9d9d9d9d9d9d9d9d9d9d9d9d9d9d9d",
"9d9d9d9d9d9d9d9d9d9d9d9d9d9d9d9d9d9d9d9d9d9d9d9d9d9d9d9d9d9d9d9d9d9d9d9d9d9d9d9d9d9d9d9d9d9d9d9d9d9d9d9d9d9d9d9d9d9d9d9d9d9d9d9d",
"9d9d9d9d9d9d9d9d9d9d9d9d9d9d9d9d9d9d9d9d9d9d9d9d9d9d9d9d9d9d9d9d9d9d9d9d9d9d9d9d9d9d9d9d9d9d9d9d9d9d9d9d9d9d9d9d9d9d9d9d9d9d9d9d"
};
