/* XPM */
static char *result[] = {
/* columns rows colors chars-per-pixel */
"64 64 101 2 ",
"K0 c #221F35",
"am c #595768",
"nu c #676476",
"05 c #5F5B6F",
"6t c #9390A3",
"98 c #39374B",
"vO c #282732",
"eG c #797688",
"QY c #2F2D3A",
"lp c #312F43",
"DB c #3E3C4A",
"Nu c #2B293D",
"1U c #A9A7BA",
"sK c #A3A0B4",
"QN c #888697",
"wV c #6B6879",
"L6 c #111017",
"Mu c #646274",
"nd c #262439",
"61 c #000003",
"Ia c #5E5A71",
"zI c #34323D",
"Qm c #5C596C",
"Q1 c #363441",
"qD c #4C4963",
"i5 c #58566A",
"so c #08070D",
"kK c #000000",
"c6 c #26242F",
"T6 c #5E5B6D",
"tq c #A19FAD",
"bY c #9592A7",
"Ob c #43414F",
"wB c #1D1C24",
"6F c #1F1E28",
"hX c #020206",
"px c #625F6F",
"X6 c #B8B6C3",
"5H c #9E9BAE",
"uW c #A2A1AF",
"5M c #918EA2",
"Dk c #36324B",
"HL c #56526C",
"dE c #85829A",
"c0 c #817E91",
"t0 c #828091",
"QB c #3E3B51",
"lo c #3D3B50",
"tl c #716F7F",
"RA c #504E5D",
"Oi c #413F54",
"JV c #39364E",
"qR c #2B2A34",
"AX c #0B0A12",
"32 c #AFADBC",
"CK c #22202C",
"GX c #6D6B7E",
"Cr c #615E73",
"7P c #38354C",
"B4 c #7A788D",
"7D c #BAB8C7",
"KP c #6B6979",
"1W c #151421",
"yM c #464452",
"cj c #312D48",
"9r c #3A3845",
"XF c #545265",
"h9 c #9B98AC",
"9W c #7D7A8F",
"RF c #918FA2",
"sr c #838192",
"Zf c #191824",
"KQ c #8F8CA1",
"Hu c #4C4A5C",
"fY c #48445B",
"hU c #A19FB0",
"Vp c #050509",
"nD c #0E0D15",
"V6 c #4B4957",
"WV c #3F3B55",
"fe c #B2AFC3",
"vN c None",
"pH c #17161D",
"wW c #8A879E",
"Zk c #716E83",
"ty c #13121B",
"nS c #6F6D7C",
"MT c #545262",
"Ik c #3B3850",
"Bw c #888696",
"x1 c #3B384D",
"yC c #1D1B2C",
"zb c #9290A1",
"ii c #9391A1",
"Ha c #757285",
"rs c #878696",
"5U c #78758A",
"uK c #45425A",
"g4 c #B1AFC0",
"SP c #3B384F",
"lt c #716E7F",
"vNvNvNvNvNvNvNvNvNvNvNvNvNvNvNvNvNvNvNvNvNvNvNvNvNvNvNvNvNvNvNvNvNvNvNvNvNvNvNvNvNvNvNvNvNvNvNvNvNvNvNvNvNvNvNvNvNvNvNvNvNvNvNvN",
"vNvNvNvNvNvNvNvNvNvNvNvNvNvNvNvNvNvNvNvNvNvNvNvNvNvNvNvNvNvNvNvNvNvNvNvNvNvNvNvNvNvNvNvNvNvNvNvNvNvNvNvNvNvNvNvNvNvNvNvNvNvNvNvN",
"vNvNvNvNvNvNvNvNvNvNvNvNvNvNvNvNvNvNvNvNvNvNvNvNvNvNvNvNvNvNvNvNvNvNvNvNvNvNvNvNvNvNvNvNvNvNvNvNvNvNvNvNvNvNvNvNvNvNvNvNvNvNvNvN",
"vNvNvNvNvNvNvNvNvNvNvNvNvNvNvNvNvNvNvNvNvNvNvNvNvNvNvNvNvNvNvNvNvNvNvNvNvNvNvNvNvNvNvNvNvNvNvNvNvNvNvNvNvNvNvNvNvNvNvNvNvNvNvNvN",
"vNvNvNvNvNvNvNvNvNvNvNvNvNvNvNvNvNvNvNvNvNvNvNvNvNvNvNvNvNvNvNvNvNvNvNvNvNvNvNvNvNvNvNvNvNvNvNvNvNvNvNvNvNvNvNvNvNvNvNvNvNvNvNvN",
"vNvNvNvNvNvNvNvNvNvNvNvNvNvNvNvNvNvNvNvNvNvNvNvNvNvNvNvNvNvNvNvNvNvNvNvNvNvNvNvNvNvNvNvNvNvNvNvNvNvNvNvNvNvNvNvNvNvNvNvNvNvNvNvN",
"vNvNvNvNvNvNvNvNvNvNvNvNvNvNvNvNvNvNvNvNvNvNvNvNvNvNvNvNx1loQBSPSPSPQBlox1vNvNvNvNvNvNvNvNvNvNvNvNvNvNvNvNvNvNvNvNvNvNvNvNvNvNvN",
"vNvNvNvNvNvNvNvNvNvNvNvNvNvNvNvNvNvNvNvNvNvNvNvNQBuKJVIkDkcjcjcjcjcjcjcjDkDk7PSPx1vNvNvNvNvNvNvNvNvNvNvNvNvNvNvNvNvNvNvNvNvNvNvN",
"vNvNvNvNvNvNvNvNvNvNvNvNvNvNvNvNvNvNvNvNvNHuuKWVIkcjNundK0K0K0K0K0K0K0K0K0ndndcjDkJVQBvNvNvNvNvNvNvNvNvNvNvNvNvNvNvNvNvNvNvNvNvN",
"vNvNvNvNvNvNvNvNvNvNvNvNvNvNvNvNvNvNvNHuuKWVDkNundK0yCZf1W1W1W1W1W1W1W1W1WZfyCyCK0NulpJVQBvNvNvNvNvNvNvNvNvNvNvNvNvNvNvNvNvNvNvN",
"vNvNvNvNvNvNvNvNvNvNvNvNvNvNvNvNvNvNuKOiDkNuK0yCZf1WtyL6nDAXAXAXAXAXAXnDnDty1WZfyCK0ndNulpJVx1vNvNvNvNvNvNvNvNvNvNvNvNvNvNvNvNvN",
"vNvNvNvNvNvNvNvNvNvNvNvNvNvNvNvNHuqDWVcjndyCZftynDAXsosoVpVphXVpVpVpVpsoAXL6ZfCKndNuNundndNuDkSPvNvNvNvNvNvNvNvNvNvNvNvNvNvNvNvN",
"vNvNvNvNvNvNvNvNvNvNvNvNvNvNvNXFqDIkNuK0ZftynDAXsoVphXhXhX616161hXhXhXsoL6Zfc6QY9rDBDBQ1Nundndlp98vNvNvNvNvNvNvNvNvNvNvNvNvNvNvN",
"vNvNvNvNvNvNvNvNvNvNvNvNvNvNi5qDIkNuCK1WnDAXVphXhX6161kKkKkKkKkK6161hXAXpHc6QYDBRAamamMTOiNuCKndlp7PvNvNvNvNvNvNvNvNvNvNvNvNvNvN",
"vNvNvNvNvNvNvNvNvNvNvNvNvNi5qDIkNuCK1WnDsoVphXkKkKkKkKkKkKkKkKkKkK61VpL6wBqR9rV6T6Zk5UGXT6DBvOyCK0cj7PvNvNvNvNvNvNvNvNvNvNvNvNvN",
"vNvNvNvNvNvNvNvNvNvNvNvN05qDWVQYCK1WnDsohXhX61kKkKkKkKkKkKkKkKkKkK61VpL66FzIyMamwVc0wWsrZkMTzIZfZfK0cj98vNvNvNvNvNvNvNvNvNvNvNvN",
"vNvNvNvNvNvNvNvNvNvNvNQmHLOilpCK1WnDVphX6161kKkKkKkKkKkKkKkKkKkKkK61VpL6CKQ1V6T6ltQNKQdEHaT6DByC1WyCndDkSPvNvNvNvNvNvNvNvNvNvNvN",
"vNvNvNvNvNvNvNvNvNvNvNIafYQ1c6ZfnDVphX6161kKkKkKkKkKkKkKkKkKkKkKkK61VpL66FzIyMamGX9WdE9WZkpxObCKtytyyCNuDkx1vNvNvNvNvNvNvNvNvNvN",
"vNvNvNvNvNvNvNvNvNvNi5HLWVqRyCL6sohX61kKkKkKkKkKkKkKkKkKkKkKkKkKkKkKhXL6wBQYObRApxGXZkltnuMTDBCKL6nD1WCKQY7PvNvNvNvNvNvNvNvNvNvN",
"vNvNvNvNvNvNvNvNvNvNCrqDQ1CK1WAXhX61kKkKkKkKkKkKkKkKkKkKkKkKkKkKkKkK61AXpHc6Q1yMMTT6pxT6MTObzI6FnDAXL6ZfndlplovNvNvNvNvNvNvNvNvN",
"vNvNvNvNvNvNvNvNvNKPamOiNuZfnDVp6161kKkKkKkKkKkKkKkKkKkKkKkKkKkKkKkKkKVpL6wBqRQ1ObV6V6V6ObQ1qRZfAXsoAXtyyCNuJVvNvNvNvNvNvNvNvNvN",
"vNvNvNvNvNvNvNvNvNGXMT9rc6tysohX61kKkKkKkKkKkKkKkKkKkKkKkKkKkKkKkKkKkK61soL6wBc6QYzIQ1zIQYvOwBL6VphXsonDZfndDklovNvNvNvNvNvNvNvN",
"vNvNvNvNvNvNvNvNeGnuqDlp6FnDVp61kKkKkKkKkKkKkKkKkKkKkKkKkKkKkKkKkKkKkKkKkKVpnDpHwB6F6F6FwBpHnDVphX61VpAXtyCKcjuKvNvNvNvNvNvNvNvN",
"vNvNvNvNvNvNvNvNB4MufYNuZfAXhXkKkKkKkKkKkKkKkKkKkKkKkKkKkKkKkKkKkKkKkKkKkKkKhXVpAXnDnDAXAXsohXkKkKkKhXsoL6yCNuWVvNvNvNvNvNvNvNvN",
"vNvNvNvNvNvNvNt09WT6ObvO1Wso61kKkKkKkKkKkKkKkKkKkKkKkKkKkKkKkKkKkKkKkKkKkKkKkKkKkK61hXhXhX61kKkKkKkK61VpnDZfndIkQBvNvNvNvNvNvNvN",
"vNvNvNvNvNvNvNBw5UT6Obc6tyVpkKkKkKkKkKkKkKkKkKkKkKkKkKkKkKkKkKkKkKkKkKkKkKkKkKkKkK61616161kKkKkKkKkKkKhXAX1Wc6DkuKvNvNvNvNvNvNvN",
"vNvNvNvNvNvNvNrsHaamDBc6L6VpkKkKkKkKkKkKkKkKkKkKkKkKkKkKkKkKkKkKkKkKkKkKkKkKkKkKkKkKkKkKkKkKkKkKkKkKkKhXso1WCKlpfYvNvNvNvNvNvNvN",
"vNvNvNvNvNvNvNQNZkamDBCKL6hXkKkKkKkKkKkKkKkKkKkKkKkKkKkKkKkKkKkKkKkKkKkKkKkKkKkKkKkKkKkKkKkKkKkKkKkKkK61sotyCKlpyMvNvNvNvNvNvNvN",
"vNvNvNvNvNvNvNdEZkMT9rCKL6hXkKkKkKkKkKkKkKkKkKkKkKkKkKkKkKkKkKkKkKkKkKkKkKkKkKkKkKkKkKkKkKkKkKkKkKkKkK61soL66FQYObHuvNvNvNvNvNvN",
"vNvNvNvNvNvNzbdEGXMTDBCKL6hXkKkKkKkKkKkKkKkKkKkKkKkKkKkKkKkKkKkKkKkKkKkKkKkKkKkKkKkKkKkKkKkKkKkKkKkKkK61VpL66FQYOiXFvNvNvNvNvNvN",
"vNvNvNvNvNvNRFdEGXMTDBc6tyVpkKkKkKkKkKkKkKkKkKkKkKkKkKkKkKkKkKkKkKkKkKkKkKkKkKkKkKkKkKkKkKkKkKkKkKkKkK61VpL66FQYObXFvNvNvNvNvNvN",
"vNvNvNvNvNvNRFdEGXamDBvOpHVpkKkKkKkKkKkKkKkKkKkKkKkKkKkKkKkKkKkKkKkKkKkKkKkKkKkKkKkKkKkKkKkKkKkKkKkKkK61VpL66FlpOii5vNvNvNvNvNvN",
"vNvNvNvNvNvNRFdEZkamObqRpHsohXkKkKkKkKkKkKkKkKkKkKkKkKkKkKkKkKkKkKkKkKkKkKkKkKkKkKkKkKkKkKkKkKkKkKkKkK61VptyCKlpfYi5vNvNvNvNvNvN",
"vNvNvNvNvNvNRFwWHaT6yMQYwBnDhXkKkKkKkKkKkKkKkKkKkKkKkKkKkKkKkKkKkKkKkKkKkKkKkKkKkKkKkKkKkKkKkKkKkKkKkK61sotyCKQ1fYXFvNvNvNvNvNvN",
"vNvNvNvNvNvNzbwW5UpxV6Q1CKL6VpkKkKkKkKkKkKkKkKkKkKkKkKkKkKkKkKkKkKkKkKkKkKkKkKkKkKkKkKkKkKkKkKkKkKkKkKhXsopHc69rqD05vNvNvNvNvNvN",
"vNvNvNvNvNvNvNKQ9WnuRA9rc6pHsokKkKkKkKkKkKkKkKkKkKkKkKkKkKkKkKkKkKkKkKkKkKkKkKkKkKkKkKkKkKkKkKkKkKkKkKhXAXZfvOIkMTQmvNvNvNvNvNvN",
"vNvNvNvNvNvNvN5Mc0GXamObQYZfAXhXkKkKkKkKkKkKkKkKkKkKkKkKkKkKkKkKkKkKkKkKkKkKkKkKkKkKkKkKkKkKkKkKkKkK61hXnDwBqROiHLvNvNvNvNvNvNvN",
"vNvNvNvNvNvNvN6tdEHaT6V6Q1CKL6Vp61kKkKkKkKkKkKkKkKkKkKkKkKkKkKkKkKkKkKkKkKkKkKkKkKkKkKkKkKkKkKkKkKkK61soL6CKlpfYT6vNvNvNvNvNvNvN",
"vNvNvNvNvNvNvNiiwW5UnuMTDBvOpHAX6161kKkKkKkKkKkKkKkKkKkKkKkKkKkKkKkKkKkKkKkKkKkKkKkKkKkKkKkKkKkKkKkKhXAX1Wc69rRAIavNvNvNvNvNvNvN",
"vNvNvNvNvNvNvNzbKQ9WGXamyMzICKL6Vp61kKkKkKkKkKkKkKkKkKkKkKkKkKkKkKkKkKkKkKkKkKkKkKkKkKkKkKkKkKkKkK61VpL6wBQYOiam05vNvNvNvNvNvNvN",
"vNvNvNvNvNvNvNvN5MdEHaMuRADBqRZfAXhXkKkKkKkKkKkKkKkKkKkKkKkKkKkKkKkKkKkKkKkKkKkKkKkKkKkKkKkKkKkK61hXAX1Wc69rV6CrvNvNvNvNvNvNvNvN",
"vNvNvNvNvNvNvNvNiiwW9WwVamyMQ1CKtyso61kKkKkKkKkKkKkKkKkKkKkKkKkKkKkKkKkKkKkKkKkKkKkKkKkKkKkKkK61hXsoL66FQYObamKPvNvNvNvNvNvNvNvN",
"vNvNvNvNvNvNvNvNvNKQsrHaMuMTObQYwBL6Vp6161kKkKkKkKkKkKkKkKkKkKkKkKkKkKkKkKkKkKkKkKkKkKkKkKkKkK61soL6wBqRDBRAMutlvNvNvNvNvNvNvNvN",
"vNvNvNvNvNvNvNvNvNiiwW9WGXT6V69rqRZfnDVp61kKkKkKkKkKkKkKkKkKkKkKkKkKkKkKkKkKkKkKkKkKkKkKkKkK61hXnDZfvO9rV6pxnSvNvNvNvNvNvNvNvNvN",
"vNvNvNvNvNvNvNvNvNvN5MdE5UwVamyMQ1c6ZfnDVp61kKkKkKkKkKkKkKkKkKkKkKkKkKkKkKkKkKkKkKkKkKkKkK61soL6Zfc6Q1V6amGXtlvNvNvNvNvNvNvNvNvN",
"vNvNvNvNvNvNvNvNvNvNRFwWc0HanuMTyMQ1c6ZfL6Vp61kKkKkKkKkKkKkKkKkKkKkKkKkKkKkKkKkKkKkKkK61hXVpL6wBvOQ1yMamGXeGvNvNvNvNvNvNvNvNvNvN",
"vNvNvNvNvNvNvNvNvNvNvN6twW9WZkMuMTyMQ1vOwBtysohX616161kKkKkKkKkKkKkKkKkKkKkKkKkKkKkK61VpAXty6FqR9rV6amwVB4vNvNvNvNvNvNvNvNvNvNvN",
"vNvNvNvNvNvNvNvNvNvNvNvN5MwW9WZkMuMTyM9rqR6FpHnDsohX616161616161kKkKkKkKkK61616161hXsoL6pHCKQYDBV6T6GX9Wt0vNvNvNvNvNvNvNvNvNvNvN",
"vNvNvNvNvNvNvNvNvNvNvNvNzbbYwW9WZkMuamV6DBzIc6wBtynDsohXhXhX6161kKkKkKkK61hXhXVpsonDpH6FvOQ1ObRApxlt9WBwvNvNvNvNvNvNvNvNvNvNvNvN",
"vNvNvNvNvNvNvNvNvNvNvNvNvNRFbYwWc0HawVT6RAyM9rQYc6wBpHL6nDAXsosoVpVpVpVpsoAXnDtypH6FvOzIDBV6amnuZkc0BwvNvNvNvNvNvNvNvNvNvNvNvNvN",
"vNvNvNvNvNvNvNvNvNvNvNvNvNvNRFbYKQdE5UZkMuamRAOb9rzIvOCKwBZfpH1WtytypHpHZfwBCKc6QYQ1DBV6MTpxGX5UsrBwvNvNvNvNvNvNvNvNvNvNvNvNvNvN",
"vNvNvNvNvNvNvNvNvNvNvNvNvNvNvNtqh9bYwWc05UGXMuamRAV6DB9rzIQYqRqRqRqRqRQYQYzI9rDByMRAampxwVHac0QNBwvNvNvNvNvNvNvNvNvNvNvNvNvNvNvN",
"vNvNvNvNvNvNvNvNvNvNvNvNvNvNvNvNvNhUh9KQwWsr5UZkwVpxamMTRAV6yMyMObObyMV6V6RAMTampxwVlt5UsrwW5MzbvNvNvNvNvNvNvNvNvNvNvNvNvNvNvNvN",
"vNvNvNvNvNvNvNvNvNvNvNvNvNvNvNvNvNvNuW5Hh9bYKQdEc09WHaltwVnuMupxpxpxMunuwVGXltHa9WsrQNKQbYiivNvNvNvNvNvNvNvNvNvNvNvNvNvNvNvNvNvN",
"vNvNvNvNvNvNvNvNvNvNvNvNvNvNvNvNvNvNvNvNhUsKsK5HbYbYKQwWQNsrsrc0c0c0srsrQNQNwWKQbYh95HhUtqvNvNvNvNvNvNvNvNvNvNvNvNvNvNvNvNvNvNvN",
"vNvNvNvNvNvNvNvNvNvNvNvNvNvNvNvNvNvNvNvNvNvN32g41U1UsKsK5H5Hh9h9h9h95H5HsKsKsK1U1U32tqvNvNvNvNvNvNvNvNvNvNvNvNvNvNvNvNvNvNvNvNvN",
"vNvNvNvNvNvNvNvNvNvNvNvNvNvNvNvNvNvNvNvNvNvNvNvNX632g4fefefefefefefefefefeg432X6vNvNvNvNvNvNvNvNvNvNvNvNvNvNvNvNvNvNvNvNvNvNvNvN",
"vNvNvNvNvNvNvNvNvNvNvNvNvNvNvNvNvNvNvNvNvNvNvNvNvNvNvNvNvNX67D7D7D7DX6vNvNvNvNvNvNvNvNvNvNvNvNvNvNvNvNvNvNvNvNvNvNvNvNvNvNvNvNvN",
"vNvNvNvNvNvNvNvNvNvNvNvNvNvNvNvNvNvNvNvNvNvNvNvNvNvNvNvNvNvNvNvNvNvNvNvNvNvNvNvNvNvNvNvNvNvNvNvNvNvNvNvNvNvNvNvNvNvNvNvNvNvNvNvN",
"vNvNvNvNvNvNvNvNvNvNvNvNvNvNvNvNvNvNvNvNvNvNvNvNvNvNvNvNvNvNvNvNvNvNvNvNvNvNvNvNvNvNvNvNvNvNvNvNvNvNvNvNvNvNvNvNvNvNvNvNvNvNvNvN",
"vNvNvNvNvNvNvNvNvNvNvNvNvNvNvNvNvNvNvNvNvNvNvNvNvNvNvNvNvNvNvNvNvNvNvNvNvNvNvNvNvNvNvNvNvNvNvNvNvNvNvNvNvNvNvNvNvNvNvNvNvNvNvNvN",
"vNvNvNvNvNvNvNvNvNvNvNvNvNvNvNvNvNvNvNvNvNvNvNvNvNvNvNvNvNvNvNvNvNvNvNvNvNvNvNvNvNvNvNvNvNvNvNvNvNvNvNvNvNvNvNvNvNvNvNvNvNvNvNvN",
"vNvNvNvNvNvNvNvNvNvNvNvNvNvNvNvNvNvNvNvNvNvNvNvNvNvNvNvNvNvNvNvNvNvNvNvNvNvNvNvNvNvNvNvNvNvNvNvNvNvNvNvNvNvNvNvNvNvNvNvNvNvNvNvN",
"vNvNvNvNvNvNvNvNvNvNvNvNvNvNvNvNvNvNvNvNvNvNvNvNvNvNvNvNvNvNvNvNvNvNvNvNvNvNvNvNvNvNvNvNvNvNvNvNvNvNvNvNvNvNvNvNvNvNvNvNvNvNvNvN"
};
