/* XPM */
static char *result[] = {
/* columns rows colors chars-per-pixel */
"64 62 64 2 ",
"5o c #0F6015",
"Z1 c #9796A8",
"PB c #335441",
"q7 c #000000",
"zs c #3E3C4A",
"3L c #4F4E5D",
"id c #3C6946",
"yG c #07060C",
"ej c #353441",
"5l c #191822",
"Qs c #7D7B8E",
"8T c #4F8E56",
"D9 c #636172",
"P2 c #6E6C80",
"vE c #747185",
"h6 c #1C1A27",
"2W c #7C8C8A",
"MN c #110F18",
"IJ c #2A3D3A",
"e6 c #3A8540",
"vU c #16531E",
"yw c #AEABC1",
"Eo c #2E2D39",
"Nh c #027C03",
"Br c #076A09",
"Kp c #067608",
"wt c #5B5969",
"I8 c #21492E",
"da c #8A879E",
"FB c #648572",
"rd c #1F8322",
"I0 c #15131E",
"6l c #4B495B",
"4P c #292735",
"xE c #78A082",
"vf c #028102",
"Ie c #3F3C56",
"Ib c #252232",
"q0 c #424150",
"ha c #696779",
"zG c #A3A2B5",
"JY c #3A3849",
"5u c #848197",
"Bq c #8DA599",
"Et c #545364",
"9E c #3C7845",
"kZ c #609667",
"K8 c #332F49",
"Z2 c #177B1A",
"fb c #21202A",
"0h c #797788",
"Ne c #008000",
"al c #2D2942",
"Or c #605D70",
"Os c #5C7D67",
"YG c #08710A",
"w7 c #817D96",
"yN c #4D8157",
"LN c #474655",
"VK c #0C0B12",
"Pi c #027F03",
"0T c #030207",
"t0 c #1F1D2F",
"hb c #8F8DA1",
"q7NeNeNeNeNeNeNeNeNeNeNeNeNeNeNeNeNeNeNeNeNeNeNeNeNeNeNeNeNeNeNeNeNeNeNeNeNeNeNeNeNeNeNeNeNeNeNeNeNeNeNeNeNeNeNeNeNeNeNeNeNeNeq7",
"q7NeNeNeNeNeNeNeNeNeNeNeNeNeNeNeNeNeNeNeNeNeNeNeNeNeNeNeNeNeNeNeNeNeNeNeNeNeNeNeNeNeNeNeNeNeNeNeNeNeNeNeNeNeNeNeNeNeNeNeNeNeNeq7",
"q7NeNeNeNeNeNeNeNeNeNeNeNeNeNeNeNeNeNeNeNeNeNeNeNeNeNeNeNeNeNeNeNeNeNeNeNeNeNeNeNeNeNeNeNeNeNeNeNeNeNeNeNeNeNeNeNeNeNeNeNeNeNeq7",
"q7NeNeNeNeNeNeNeNeNeNeNeNeNeNeNeNeNeNeNeNeNeNeNeNeNeNeNeNeNeNeNeNeNeNeNeNeNeNeNeNeNeNeNeNeNeNeNeNeNeNeNeNeNeNeNeNeNeNeNeNeNeNeq7",
"q7NeNeNeNeNeNeNeNeNeNeNeNeNeNeNeNeNeNeNeNeNeNeNeNeNeNeNevfvfvfvfvfvfvfvfNeNeNeNeNeNeNeNeNeNeNeNeNeNeNeNeNeNeNeNeNeNeNeNeNeNeNeq7",
"q7NeNeNeNeNeNeNeNeNeNeNeNeNeNeNeNeNeNeNeNeNeNeNevfvfNeNhKpYGYGBrBrYGYGKpNhPivfvfNeNeNeNeNeNeNeNeNeNeNeNeNeNeNeNeNeNeNeNeNeNeNeq7",
"q7NeNeNeNeNeNeNeNeNeNeNeNeNeNeNeNeNeNeNeNevfvfNhYG5ovUI8IJIJIJJYejejIJIJI8vU5oYGNhvfvfNeNeNeNeNeNeNeNeNeNeNeNeNeNeNeNeNeNeNeNeq7",
"q7NeNeNeNeNeNeNeNeNeNeNeNeNeNeNeNeNeNevfNeKp5oI8IJJYJYK8K8alalalalalalalalK8K8ejI85oYGNevfNeNeNeNeNeNeNeNeNeNeNeNeNeNeNeNeNeNeq7",
"q7NeNeNeNeNeNeNeNeNeNeNeNeNeNeNeNeNevfKp5oI8IeIeK8al4PIbt0t0t0h6h6h6h6t0t0IbIbalK8K8IJvUYGNeNeNeNeNeNeNeNeNeNeNeNeNeNeNeNeNeNeq7",
"q7NeNeNeNeNeNeNeNeNeNeNeNeNeNeNevfPiBrPBq0IeK8alIbt0h65lI0I0I0MNMNMNMNI0I05lh6t0Ib4PalK8IJ5oNhvfNeNeNeNeNeNeNeNeNeNeNeNeNeNeNeq7",
"q7NeNeNeNeNeNeNeNeNeNeNeNeNeNevfNh5oLNIeK8alt0h6I0I0MNVKVKyGyGyGyGyGVKVKVKMNI0h6t0Ib4P4PalejI8YGvfNeNeNeNeNeNeNeNeNeNeNeNeNeNeq7",
"q7NeNeNeNeNeNeNeNeNeNeNeNeNevfYGPB6lIeK8Ibh6I0MNMNVKyGyG0T0T0T0T0T0TyGyGVKI0h64PEoK8Eo4PIbalK8IJBrNeNeNeNeNeNeNeNeNeNeNeNeNeNeq7",
"q7NeNeNeNeNeNeNeNeNeNeNeNevfYGPB6lJYalt05lMNVKyGyG0T0Tq7q7q7q7q70T0T0TVKI0fbEoJYq0LNLNzsEoIbIbK8IJ5oNeNeNeNeNeNeNeNeNeNeNeNeNeq7",
"q7NeNeNeNeNeNeNeNeNeNeNevfYGPB6lIealt0I0MNyGyG0Tq7q7q7q7q7q7q7q7q7q70TMNh64PejLNwthaD9wtq04Pt0IbK8IJ5oNeNeNeNeNeNeNeNeNeNeNeNeq7",
"q7NeNeNeNeNeNeNeNeNeNevfKpPB3LIealt0I0VKyG0Tq7q7q7q7q7q7q7q7q7q7q7q7yGMNfbejq0EthaQsw7vEwtzsfbh6IbK8IJBrvfNeNeNeNeNeNeNeNeNeNeq7",
"q7NeNeNeNeNeNeNeNeNeNeNhPBEtIeK8fbI0VKyG0Tq7q7q7q7q7q7q7q7q7q7q7q7q7yGI0IbJY6lOrvEdahbw7ha6l4PI0h6IbK8IJYGvfNeNeNeNeNeNeNeNeNeq7",
"q7NeNeNeNeNeNeNeNeNePi5oEtLNejIb5lVKyG0Tq7q7q7q7q7q7q7q7q7q7q7q7q7q7yGMNfbJY6lD9vEdadaQsP2EtEo5lI0h64PK8I8NhNeNeNeNeNeNeNeNeNeq7",
"q7NeNeNeNeNeNeNeNevfYGEtEtJY4P5lMNyGq7q7q7q7q7q7q7q7q7q7q7q7q7q7q7q70TMNfbejLNwtha0h0hvEha3LejI0VKI0t0alJY5oNeNeNeNeNeNeNeNeNeq7",
"q7NeNeNeNeNeNeNeNeNhidwtLNEofbI0yG0Tq7q7q7q7q7q7q7q7q7q7q7q7q7q7q7q70TVK5lEozs3LwtD9haD9Etq0EoI0VKMN5lIbK8IJYGvfNeNeNeNeNeNeNeq7",
"q7NeNeNeNeNeNeNevfYGD9EtJY4P5lVK0Tq7q7q7q7q7q7q7q7q7q7q7q7q7q7q7q7q7q7VKI0fbEozs6lEtEt3Lq0ej4PMNyGVKMNh64PJYvUNeNeNeNeNeNeNeNeq7",
"q7NeNeNeNeNeNeNeNhidha6lejfbMNyGq7q7q7q7q7q7q7q7q7q7q7q7q7q7q7q7q7q7q70TVK5lfbEoejzszsJYEo4Ph6VK0TyGVKI0IbK8IJYGvfNeNeNeNeNeNeq7",
"q7NeNeNeNeNeNevfKpP2Orq0Eo5lVK0Tq7q7q7q7q7q7q7q7q7q7q7q7q7q7q7q7q7q7q7q70TVKI0h6IbIb4PIbfb5lVKyGq70TyGMNt0alzs5oNeNeNeNeNeNeNeq7",
"q7NeNeNeNeNeNePi9EvEwtIeIbI0yGq7q7q7q7q7q7q7q7q7q7q7q7q7q7q7q7q7q7q7q7q7q70TyGVKMNMNMNMNMNVK0Tq7q7q7yGVKh64PJYI8NhNeNeNeNeNeNeq7",
"q7NeNeNeNeNeNeNhOsvEEtJYfbMN0Tq7q7q7q7q7q7q7q7q7q7q7q7q7q7q7q7q7q7q7q7q7q7q7q7q70T0T0T0T0Tq7q7q7q7q70TVKI0IbK8q0YGvfNeNeNeNeNeq7",
"q7NeNeNeNeNeNeZ2QsP2EtJYfbVK0Tq7q7q7q7q7q7q7q7q7q7q7q7q7q7q7q7q7q7q7q7q7q7q7q7q7q7q7q7q7q7q7q7q7q7q70TyGMNfbK8q05ovfNeNeNeNeNeq7",
"q7NeNeNeNeNePiZ25uP23Lejh6VKq7q7q7q7q7q7q7q7q7q7q7q7q7q7q7q7q7q7q7q7q7q7q7q7q7q7q7q7q7q7q7q7q7q7q7q7q7yGMNt0EoIevUPiNeNeNeNeNeq7",
"q7NeNeNeNeNePi9E5uha3Lejh6VKq7q7q7q7q7q7q7q7q7q7q7q7q7q7q7q7q7q7q7q7q7q7q7q7q7q7q7q7q7q7q7q7q7q7q7q7q70TMNh6EoIePBNhNeNeNeNeNeq7",
"q7NeNeNeNeNePiyNw7ha3Lejh6VKq7q7q7q7q7q7q7q7q7q7q7q7q7q7q7q7q7q7q7q7q7q7q7q7q7q7q7q7q7q7q7q7q7q7q7q7q70TVKh64PzsPBKpvfNeNeNeNeq7",
"q7NeNeNeNeNePiFBw7ha3Lejh6VKq7q7q7q7q7q7q7q7q7q7q7q7q7q7q7q7q7q7q7q7q7q7q7q7q7q7q7q7q7q7q7q7q7q7q7q7q70TVKh64PzsLNKpvfNeNeNeNeq7",
"q7NeNeNeNeNeNhFBw7ha3Lejh6VKq7q7q7q7q7q7q7q7q7q7q7q7q7q7q7q7q7q7q7q7q7q7q7q7q7q7q7q7q7q7q7q7q7q7q7q7q70TVKh64Pzs6lYGvfNeNeNeNeq7",
"q7NeNeNeNeNeNhFBw7ha3LejfbMN0Tq7q7q7q7q7q7q7q7q7q7q7q7q7q7q7q7q7q7q7q7q7q7q7q7q7q7q7q7q7q7q7q7q7q7q7q70TVKh6EoIe3LYGvfNeNeNeNeq7",
"q7NeNeNeNeNePiFBw7haEtJYIbMNyGq7q7q7q7q7q7q7q7q7q7q7q7q7q7q7q7q7q7q7q7q7q7q7q7q7q7q7q7q7q7q7q7q7q7q7q70TVKh6EoIe3LYGvfNeNeNeNeq7",
"q7NeNeNeNeNePiFB5uP2Etzs4PI0yGq7q7q7q7q7q7q7q7q7q7q7q7q7q7q7q7q7q7q7q7q7q7q7q7q7q7q7q7q7q7q7q7q7q7q7q70TMNfbEoq0EtKpvfNeNeNeNeq7",
"q7NeNeNeNeNePiFBdavEwtq0Eo5lVKq7q7q7q7q7q7q7q7q7q7q7q7q7q7q7q7q7q7q7q7q7q7q7q7q7q7q7q7q7q7q7q7q7q7q7q7yGMNfbK86lEtKpvfNeNeNeNeq7",
"q7NeNeNeNeNePiyNdavEOr6lejfbMN0Tq7q7q7q7q7q7q7q7q7q7q7q7q7q7q7q7q7q7q7q7q7q7q7q7q7q7q7q7q7q7q7q7q7q7q7yGI0Ibej6lPBNhNeNeNeNeNeq7",
"q7NeNeNeNeNeNeyNdaQsha3LJYIbI0yGq7q7q7q7q7q7q7q7q7q7q7q7q7q7q7q7q7q7q7q7q7q7q7q7q7q7q7q7q7q7q7q7q7q70TVK5l4PJYEtidNhNeNeNeNeNeq7",
"q7NeNeNeNeNeNerdhbw7P2wtq0Eoh6VKq7q7q7q7q7q7q7q7q7q7q7q7q7q7q7q7q7q7q7q7q7q7q7q7q7q7q7q7q7q7q7q7q7q7yGVKh6Eoq0EtidPiNeNeNeNeNeq7",
"q7NeNeNeNeNeNeZ22W5uvEOr6lejIbI00Tq7q7q7q7q7q7q7q7q7q7q7q7q7q7q7q7q7q7q7q7q7q7q7q7q7q7q7q7q7q7q7q7q7yGI0fbej6lwtYGvfNeNeNeNeNeq7",
"q7NeNeNeNeNeNePiFBda0hhaEtq0Eoh6VK0Tq7q7q7q7q7q7q7q7q7q7q7q7q7q7q7q7q7q7q7q7q7q7q7q7q7q7q7q7q7q7q70TVKh64PzsEtwtKpvfNeNeNeNeNeq7",
"q7NeNeNeNeNeNevf9Ehbw7P2Or6lejIbI0yGq7q7q7q7q7q7q7q7q7q7q7q7q7q7q7q7q7q7q7q7q7q7q7q7q7q7q7q7q7q70TyGI0fbejLNOridPiNeNeNeNeNeNeq7",
"q7NeNeNeNeNeNeNePi2Wda0hhaEtq0Eoh6MN0Tq7q7q7q7q7q7q7q7q7q7q7q7q7q7q7q7q7q7q7q7q7q7q7q7q7q7q7q7q7yGMNh6EozsEtD9YGNeNeNeNeNeNeNeq7",
"q7NeNeNeNeNeNeNePiyNdaw7vEOr3LJY4P5lVK0Tq7q7q7q7q7q7q7q7q7q7q7q7q7q7q7q7q7q7q7q7q7q7q7q7q7q7q70TMN5l4PJY3LD9idNhNeNeNeNeNeNeNeq7",
"q7NeNeNeNeNeNeNeNeZ22Wda0hhawtLNejIb5lVK0Tq7q7q7q7q7q7q7q7q7q7q7q7q7q7q7q7q7q7q7q7q7q7q7q7q70TVK5lIbej6lOrhaZ2NeNeNeNeNeNeNeNeq7",
"q7NeNeNeNeNeNeNeNeNeyNda5uvEhaEtLNejIb5lVK0Tq7q7q7q7q7q7q7q7q7q7q7q7q7q7q7q7q7q7q7q7q7q7q70TMN5lIbejLNwtP2idNhNeNeNeNeNeNeNeNeq7",
"q7NeNeNeNeNeNeNeNeNePiFBdaw7vED9Etq0ejIb5lMNyGq7q7q7q7q7q7q7q7q7q7q7q7q7q7q7q7q7q7q7q70TyGMNh64PejLNwtP2vEZ2NeNeNeNeNeNeNeNeNeq7",
"q7NeNeNeNeNeNeNeNeNePird2WdaQsP2D9Etq0ej4Ph6MNyG0Tq7q7q7q7q7q7q7q7q7q7q7q7q7q7q7q7q7yGVKI0fbEoJY6lwtP20h9EPiNeNeNeNeNeNeNeNeNeq7",
"q7NeNeNeNeNeNeNeNeNeNePie6hbdaQsvED9EtLNJYEofb5lMNyG0T0Tq7q7q7q7q7q7q7q7q7q7q70T0TyGMN5lIbEozs3LOrP2Qs9ENhNeNeNeNeNeNeNeNeNeNeq7",
"q7NeNeNeNeNeNeNeNeNeNeNePiyNhbdaw7vEhawt6lzsej4Pfb5lMNVKyGyG0T0Tq7q7q70T0TyGyGVKMN5lfbEoJYLNEtD9vEQsOsNhNeNeNeNeNeNeNeNeNeNeNeq7",
"q7NeNeNeNeNeNeNeNeNeNeNeNePi8TZ1hb5u0hP2OrEtLNzsej4Pfb5lI0MNMNVKVKVKVKMNMNI05lh6IbEoejq03Lwtha0h5uOsZ2NeNeNeNeNeNeNeNeNeNeNeNeq7",
"q7NeNeNeNeNeNeNeNeNeNeNeNePiNh8TZ1hbdaQsvEhaOrEt6lq0ejEo4PIbIbfbfbfbfbIb4P4PEoejzsLN3LwthavEQsdaOsZ2NeNeNeNeNeNeNeNeNeNeNeNeNeq7",
"q7NeNeNeNeNeNeNeNeNeNeNeNeNevfPie6hbZ1hb5uQsvEhaD9wt3LLNq0zsJYJYJYJYJYzsq0LN6l3LwtD9havEQsdadayNPiNeNeNeNeNeNeNeNeNeNeNeNeNeNeq7",
"q7NeNeNeNeNeNeNeNeNeNeNeNeNePivfvfrd2WZ1Z1hbdaw70hvEP2haD9wtwtwtEtEtwtwtOrD9haP2vEQs5udahb2We6PiNeNeNeNeNeNeNeNeNeNeNeNeNeNeNeq7",
"q7NeNeNeNeNeNeNeNeNeNeNeNeNeNeNevfvfvf8TZ1zGZ1Z1hbhbda5uQs0h0h0h0h0h0h0hQsw75udahbZ1Z1Z1FBrdPiNeNeNeNeNeNeNeNeNeNeNeNeNeNeNeNeq7",
"q7NeNeNeNeNeNeNeNeNeNeNeNeNeNeNeNevfNeNerd8TBqzGzGzGzGZ1Z1Z1Z1Z1hbZ1Z1Z1Z1Z1zGzGzGBqkZrdNeNeNeNeNeNeNeNeNeNeNeNeNeNeNeNeNeNeNeq7",
"q7NeNeNeNeNeNeNeNeNeNeNeNeNeNeNeNeNeNeNeNeNerd8TxEBqywywywywywywywywywywywywzGxE8TrdNePiNeNeNeNeNeNeNeNeNeNeNeNeNeNeNeNeNeNeNeq7",
"q7NeNeNeNeNeNeNeNeNeNeNeNeNeNeNeNeNeNeNeNeNeNeNevfrde68TkZxEBqBqBqBqxExEkZe6rdvfNeNeNeNeNeNeNeNeNeNeNeNeNeNeNeNeNeNeNeNeNeNeNeq7",
"q7NeNeNeNeNeNeNeNeNeNeNeNeNeNeNeNeNeNeNeNeNeNeNeNeNeNePiNevfvfvfvfvfvfNePiPiNeNeNeNeNeNeNeNeNeNeNeNeNeNeNeNeNeNeNeNeNeNeNeNeNeq7",
"q7NeNeNeNeNeNeNeNeNeNeNeNeNeNeNeNeNeNeNeNeNeNeNeNeNeNeNeNeNevfvfvfvfNeNeNeNeNeNeNeNeNeNeNeNeNeNeNeNeNeNeNeNeNeNeNeNeNeNeNeNeNeq7",
"q7NeNeNeNeNeNeNeNeNeNeNeNeNeNeNeNeNeNeNeNeNeNeNeNeNeNeNeNeNeNeNeNeNeNeNeNeNeNeNeNeNeNeNeNeNeNeNeNeNeNeNeNeNeNeNeNeNeNeNeNeNeNeq7",
"q7NeNeNeNeNeNeNeNeNeNeNeNeNeNeNeNeNeNeNeNeNeNeNeNeNeNeNeNeNeNeNeNeNeNeNeNeNeNeNeNeNeNeNeNeNeNeNeNeNeNeNeNeNeNeNeNeNeNeNeNeNeNeq7",
"q7NeNeNeNeNeNeNeNeNeNeNeNeNeNeNeNeNeNeNeNeNeNeNeNeNeNeNeNeNeNeNeNeNeNeNeNeNeNeNeNeNeNeNeNeNeNeNeNeNeNeNeNeNeNeNeNeNeNeNeNeNeNeq7",
"q7NeNeNeNeNeNeNeNeNeNeNeNeNeNeNeNeNeNeNeNeNeNeNeNeNeNeNeNeNeNeNeNeNeNeNeNeNeNeNeNeNeNeNeNeNeNeNeNeNeNeNeNeNeNeNeNeNeNeNeNeNeNeq7"
};
